<?xml version="1.0" encoding="UTF-8"?>
<!DOCTYPE svg PUBLIC "-//W3C//DTD SVG 1.1//EN" "http://www.w3.org/Graphics/SVG/1.1/DTD/svg11.dtd">
<svg xmlns="http://www.w3.org/2000/svg" version="1.1" width="512px" height="512px" style="shape-rendering:geometricPrecision; text-rendering:geometricPrecision; image-rendering:optimizeQuality; fill-rule:evenodd; clip-rule:evenodd" xmlns:xlink="http://www.w3.org/1999/xlink">
<g><path style="opacity:0.995" fill="#89664c" d="M 418.5,155.5 C 415.727,159.724 414.06,164.391 413.5,169.5C 414.851,173.528 415.517,177.695 415.5,182C 412.243,196.73 411.743,211.563 414,226.5C 415.538,234.525 417.205,242.525 419,250.5C 419.667,256.833 419.667,263.167 419,269.5C 410.793,287.83 405.959,306.996 404.5,327C 403.734,340.731 408.401,352.065 418.5,361C 437.363,370.146 452.53,365.979 464,348.5C 467.01,342.94 469.51,337.273 471.5,331.5C 470.829,387.469 478.829,442.136 495.5,495.5C 461.5,495.5 427.5,495.5 393.5,495.5C 396.062,464.43 398.562,433.43 401,402.5C 377.614,428.836 348.781,446.669 314.5,456C 251.192,472.725 192.192,463.392 137.5,428C 127.204,420.76 118.038,412.26 110,402.5C 112.438,433.43 114.938,464.43 117.5,495.5C 83.5,495.5 49.5,495.5 15.5,495.5C 32.172,442.13 40.172,387.463 39.5,331.5C 42.6829,343.367 49.0163,353.2 58.5,361C 69.8333,367 81.1667,367 92.5,361C 102.598,352.07 107.265,340.736 106.5,327C 105.04,306.993 100.207,287.826 92,269.5C 91.3333,263.5 91.3333,257.5 92,251.5C 95.3949,236.673 97.5616,221.673 98.5,206.5C 97.7448,198.31 96.7448,190.143 95.5,182C 96.7937,176.576 97.2937,171.076 97,165.5C 95.3446,161.697 93.5112,158.03 91.5,154.5C 119.846,92.3782 168.179,57.2115 236.5,49C 260.301,46.4939 283.968,47.3272 307.5,51.5C 302.697,54.4711 298.03,57.6377 293.5,61C 314.692,64.9648 335.359,70.7982 355.5,78.5C 351.419,81.2671 347.086,83.7671 342.5,86C 376.616,99.6179 401.949,122.785 418.5,155.5 Z"/></g>
<g><path style="opacity:1" fill="#dfab7d" d="M 153.5,148.5 C 189.863,148.425 223.863,157.425 255.5,175.5C 279.629,162.097 305.296,153.264 332.5,149C 376.895,144.438 401.728,164.271 407,208.5C 410.006,256.658 391.172,293.491 350.5,319C 365.775,338.127 370.275,359.627 364,383.5C 356.45,406.72 341.95,424.22 320.5,436C 274.924,458.923 229.924,457.923 185.5,433C 149.276,409.326 137.443,376.826 150,335.5C 152.876,329.577 156.376,324.077 160.5,319C 113.968,289.09 96.1347,246.924 107,192.5C 113.354,167.975 128.854,153.308 153.5,148.5 Z"/></g>
<g><path style="opacity:0.995" fill="#fed5ba" d="M 91.5,154.5 C 93.5112,158.03 95.3446,161.697 97,165.5C 97.2937,171.076 96.7937,176.576 95.5,182C 96.7448,190.143 97.7448,198.31 98.5,206.5C 97.5616,221.673 95.3949,236.673 92,251.5C 91.3333,257.5 91.3333,263.5 92,269.5C 100.207,287.826 105.04,306.993 106.5,327C 107.265,340.736 102.598,352.07 92.5,361C 81.1667,367 69.8333,367 58.5,361C 49.0163,353.2 42.6829,343.367 39.5,331.5C 34.7972,314.883 32.4639,297.883 32.5,280.5C 31.792,246.197 39.292,213.864 55,183.5C 61.0391,172.131 69.2057,162.631 79.5,155C 83.4569,153.266 87.4569,153.099 91.5,154.5 Z"/></g>
<g><path style="opacity:0.995" fill="#fed5ba" d="M 471.5,331.5 C 469.51,337.273 467.01,342.94 464,348.5C 452.53,365.979 437.363,370.146 418.5,361C 408.401,352.065 403.734,340.731 404.5,327C 405.959,306.996 410.793,287.83 419,269.5C 419.667,263.167 419.667,256.833 419,250.5C 417.205,242.525 415.538,234.525 414,226.5C 411.743,211.563 412.243,196.73 415.5,182C 415.517,177.695 414.851,173.528 413.5,169.5C 414.06,164.391 415.727,159.724 418.5,155.5C 422.693,153.025 427.026,152.858 431.5,155C 441.794,162.631 449.961,172.131 456,183.5C 471.709,213.869 479.209,246.202 478.5,280.5C 478.536,297.883 476.203,314.883 471.5,331.5 Z"/></g>
<g><path style="opacity:1" fill="#3b302a" d="M 178.5,214.5 C 197.063,212.877 208.563,221.21 213,239.5C 215.836,255.036 212.003,268.536 201.5,280C 186.589,289.33 174.089,286.83 164,272.5C 158.294,260.692 156.96,248.358 160,235.5C 163.574,226.1 169.741,219.1 178.5,214.5 Z"/></g>
<g><path style="opacity:1" fill="#3b302a" d="M 317.5,214.5 C 336.526,213.011 348.026,221.678 352,240.5C 354.847,256.284 350.681,269.784 339.5,281C 323.592,289.628 311.092,286.128 302,270.5C 295.107,254.564 296.107,239.231 305,224.5C 308.598,220.306 312.765,216.972 317.5,214.5 Z"/></g>
<g><path style="opacity:1" fill="#3e322b" d="M 236.5,292.5 C 242.25,292.6 245.416,295.6 246,301.5C 247.674,310.027 246.174,317.86 241.5,325C 237.525,326.379 234.691,325.213 233,321.5C 228.691,311.022 229.858,301.355 236.5,292.5 Z"/></g>
<g><path style="opacity:1" fill="#3e322b" d="M 269.5,292.5 C 275.645,292.806 279.145,296.14 280,302.5C 281.525,310.9 279.691,318.4 274.5,325C 271.975,325.896 269.808,325.396 268,323.5C 262.946,312.822 263.446,302.489 269.5,292.5 Z"/></g>
<g><path style="opacity:1" fill="#3b302a" d="M 177.5,353.5 C 202.541,357.24 227.707,359.906 253,361.5C 278.372,360.565 303.539,357.898 328.5,353.5C 333.338,352.675 335.671,354.675 335.5,359.5C 334.636,365.893 332.136,371.56 328,376.5C 298.274,407.592 262.774,416.758 221.5,404C 203.883,397.616 189.717,386.783 179,371.5C 176.511,367.689 175.011,363.522 174.5,359C 174.863,356.808 175.863,354.974 177.5,353.5 Z"/></g>
</svg>
