<?xml version="1.0" encoding="UTF-8"?>
<!DOCTYPE svg PUBLIC "-//W3C//DTD SVG 1.1//EN" "http://www.w3.org/Graphics/SVG/1.1/DTD/svg11.dtd">
<svg xmlns="http://www.w3.org/2000/svg" version="1.1" width="70px" height="70px" style="shape-rendering:geometricPrecision; text-rendering:geometricPrecision; image-rendering:optimizeQuality; fill-rule:evenodd; clip-rule:evenodd" xmlns:xlink="http://www.w3.org/1999/xlink">
<g><path style="opacity:0.964" fill="#8a674c" d="M 58.5,21.5 C 57.8333,22.1667 57.1667,22.8333 56.5,23.5C 49.2301,19.6214 41.8967,19.6214 34.5,23.5C 27.3537,19.6723 20.3537,19.6723 13.5,23.5C 11.3812,23.4677 10.0478,24.4677 9.5,26.5C 9.16667,26.5 8.83333,26.5 8.5,26.5C 12.218,12.2826 21.5513,5.28262 36.5,5.5C 40.8956,6.7059 45.2289,8.2059 49.5,10C 49.1667,10.3333 48.8333,10.6667 48.5,11C 53.4098,13.0746 56.7431,16.5746 58.5,21.5 Z"/></g>
<g><path style="opacity:1" fill="#fdd3b8" d="M 19.5,45.5 C 13.5918,46.393 9.92518,44.0596 8.5,38.5C 8.5,35.8333 8.5,33.1667 8.5,30.5C 9.23411,29.2921 9.56745,27.9587 9.5,26.5C 10.0478,24.4677 11.3812,23.4677 13.5,23.5C 13.8565,24.8699 14.6898,25.8699 16,26.5C 18.7929,24.7088 21.7929,23.3755 25,22.5C 25.8333,22.6667 26.6667,22.8333 27.5,23C 26.5,24 25.5,25 24.5,26C 26.4896,25.8621 28.4896,25.3621 30.5,24.5C 31.1667,24.8333 31.8333,25.1667 32.5,25.5C 31.8333,26.5 31.1667,27.5 30.5,28.5C 32.898,30.6213 33.0647,32.9546 31,35.5C 28.2319,40.1043 24.3985,43.4377 19.5,45.5 Z"/></g>
<g><path style="opacity:1" fill="#fdd3b8" d="M 56.5,23.5 C 57.3764,23.3691 58.0431,23.7025 58.5,24.5C 59.0505,26.6568 59.7171,28.6568 60.5,30.5C 60.5,33.1667 60.5,35.8333 60.5,38.5C 59.3575,43.7525 56.0241,46.0858 50.5,45.5C 43.4923,43.0284 38.8257,38.1951 36.5,31C 37.0223,30.0497 37.689,29.2164 38.5,28.5C 37.8333,27.5 37.1667,26.5 36.5,25.5C 38.9593,24.357 41.2927,24.6904 43.5,26.5C 43.8333,26.3333 44.1667,26.1667 44.5,26C 43.5,25 42.5,24 41.5,23C 42.3333,22.8333 43.1667,22.6667 44,22.5C 47.2071,23.3755 50.2071,24.7088 53,26.5C 54.6424,26.0222 55.8091,25.0222 56.5,23.5 Z"/></g>
<g><path style="opacity:1" fill="#ddaa7d" d="M 56.5,23.5 C 55.8091,25.0222 54.6424,26.0222 53,26.5C 50.2071,24.7088 47.2071,23.3755 44,22.5C 43.1667,22.6667 42.3333,22.8333 41.5,23C 42.5,24 43.5,25 44.5,26C 44.1667,26.1667 43.8333,26.3333 43.5,26.5C 41.2927,24.6904 38.9593,24.357 36.5,25.5C 37.1667,26.5 37.8333,27.5 38.5,28.5C 37.689,29.2164 37.0223,30.0497 36.5,31C 38.8257,38.1951 43.4923,43.0284 50.5,45.5C 50.8517,56.6466 45.3517,61.9799 34,61.5C 25.7337,61.3909 20.567,57.3909 18.5,49.5C 18.6233,48.0755 18.9566,46.7421 19.5,45.5C 24.3985,43.4377 28.2319,40.1043 31,35.5C 33.0647,32.9546 32.898,30.6213 30.5,28.5C 31.1667,27.5 31.8333,26.5 32.5,25.5C 31.8333,25.1667 31.1667,24.8333 30.5,24.5C 28.4896,25.3621 26.4896,25.8621 24.5,26C 25.5,25 26.5,24 27.5,23C 26.6667,22.8333 25.8333,22.6667 25,22.5C 21.7929,23.3755 18.7929,24.7088 16,26.5C 14.6898,25.8699 13.8565,24.8699 13.5,23.5C 20.3537,19.6723 27.3537,19.6723 34.5,23.5C 41.8967,19.6214 49.2301,19.6214 56.5,23.5 Z"/></g>
<g><path style="opacity:0.94" fill="#8a674d" d="M 58.5,21.5 C 59.339,22.6412 60.0057,23.9745 60.5,25.5C 67.3345,28.5251 69.5012,33.5251 67,40.5C 65.108,42.0542 63.608,43.8876 62.5,46C 64.5643,53.0896 66.231,60.2563 67.5,67.5C 62.8215,67.6658 58.1548,67.4992 53.5,67C 54.8109,64.033 54.4775,61.1996 52.5,58.5C 40.0615,65.4462 27.8948,65.1128 16,57.5C 14.6173,60.6878 14.4506,63.8545 15.5,67C 10.8452,67.4992 6.17853,67.6658 1.5,67.5C 2.76901,60.2563 4.43567,53.0896 6.5,46C 5.01486,43.8439 3.51486,41.6772 2,39.5C -0.024756,32.8814 2.14191,28.548 8.5,26.5C 8.83333,26.5 9.16667,26.5 9.5,26.5C 9.56745,27.9587 9.23411,29.2921 8.5,30.5C 4.12054,32.8538 3.45387,36.0205 6.5,40C 7.81602,40.5281 8.48269,40.0281 8.5,38.5C 9.92518,44.0596 13.5918,46.393 19.5,45.5C 18.9566,46.7421 18.6233,48.0755 18.5,49.5C 20.567,57.3909 25.7337,61.3909 34,61.5C 45.3517,61.9799 50.8517,56.6466 50.5,45.5C 56.0241,46.0858 59.3575,43.7525 60.5,38.5C 60.5173,40.0281 61.184,40.5281 62.5,40C 64.4439,37.8471 64.9439,35.3471 64,32.5C 63.1841,31.1772 62.0174,30.5106 60.5,30.5C 59.7171,28.6568 59.0505,26.6568 58.5,24.5C 58.0431,23.7025 57.3764,23.3691 56.5,23.5C 57.1667,22.8333 57.8333,22.1667 58.5,21.5 Z"/></g>
<g><path style="opacity:1" fill="#f7bfca" d="M 8.5,30.5 C 8.5,33.1667 8.5,35.8333 8.5,38.5C 8.48269,40.0281 7.81602,40.5281 6.5,40C 3.45387,36.0205 4.12054,32.8538 8.5,30.5 Z"/></g>
<g><path style="opacity:1" fill="#f4bcc6" d="M 60.5,30.5 C 62.0174,30.5106 63.1841,31.1772 64,32.5C 64.9439,35.3471 64.4439,37.8471 62.5,40C 61.184,40.5281 60.5173,40.0281 60.5,38.5C 60.5,35.8333 60.5,33.1667 60.5,30.5 Z"/></g>
<g><path style="opacity:1" fill="#584639" d="M 36.5,39.5 C 37.6129,40.9464 37.7796,42.6131 37,44.5C 35.2116,42.9769 35.0449,41.3102 36.5,39.5 Z"/></g>
<g><path style="opacity:1" fill="#524135" d="M 31.5,40.5 C 33.4646,40.9483 33.7979,41.9483 32.5,43.5C 31.6143,42.675 31.281,41.675 31.5,40.5 Z"/></g>
<g><path style="opacity:1" fill="#45382f" d="M 37.5,49.5 C 39.8333,49.5 42.1667,49.5 44.5,49.5C 43.9171,54.2383 41.2505,56.0717 36.5,55C 35.2427,52.9235 35.576,51.0902 37.5,49.5 Z"/></g>
</svg>
